# xmcd CD database file
#
# Track frame offsets:
#	150
#	5547
#	42754
#	53744
#	91921
#	114848
#	139877
#	147684
#	166111
#	184132
#
# Disc length: 2780 seconds
#
# Revision: 5
# Processed by: cddbd v1.5.1PL0 Copyright (c) Steve Scherf et al.
# Submitted via: CDex 1.51
#
DISCID=800ada0a
DTITLE=Submarine Silence - Submarine Silence
DYEAR=2002
DGENRE=Progressive Rock
TTITLE0=The Door
TTITLE1=Bicycle Ride from Earth to Saturn
TTITLE2=Elven's Lullaby
TTITLE3=Mr. Submarine's Ordinary Day(Part 1)
TTITLE4=Winter Glows
TTITLE5=Venice, a Spooky Love Story
TTITLE6=Mr. Submarine's Ordinary Day(Part 2)
TTITLE7=Shores Where Time Stands Still
TTITLE8=Red Sun
TTITLE9=Porto di Venere
EXTD=YEAR: 2002
EXTT0=
EXTT1=
EXTT2=
EXTT3=
EXTT4=
EXTT5=
EXTT6=
EXTT7=
EXTT8=
EXTT9=
PLAYORDER=
